<svg xmlns="http://www.w3.org/2000/svg" viewBox="0 0 128 128" role="img" aria-labelledby="firebaseTitle">
  <title id="firebaseTitle">Firebase</title>
  <defs>
    <linearGradient id="fireA" x1="16.5" x2="68.2" y1="111.1" y2="13.6" gradientUnits="userSpaceOnUse">
      <stop offset="0" stop-color="#ff9100"/>
      <stop offset="1" stop-color="#ffc400"/>
    </linearGradient>
    <linearGradient id="fireB" x1="38.8" x2="96.3" y1="108.4" y2="42.4" gradientUnits="userSpaceOnUse">
      <stop offset="0" stop-color="#ff6f00"/>
      <stop offset="1" stop-color="#ffca28"/>
    </linearGradient>
  </defs>
  <path fill="url(#fireA)" d="M28.3 96.7 41.1 14.2c.5-3 4.4-3.8 6-.9l15.3 29.1z"/>
  <path fill="url(#fireB)" d="m63.2 55.5 12.1-23.3c1.3-2.5 5-2.1 5.7.6l17.7 63.9z"/>
  <path fill="#ffa000" d="m28.3 96.7 4-2.5 31.1-38.7 35.2 41.2-34.5 18.8c-2.4 1.3-5.4 1.3-7.8 0z"/>
  <path fill="#f57c00" d="m98.6 96.7-35.2-41.2-31.1 38.7 66.3 2.5z"/>
  <path fill="#fff8e1" d="m56.3 115.5 34.5-18.8-30.2-18.6z" opacity=".35"/>
</svg>
