<svg xmlns="http://www.w3.org/2000/svg" viewBox="0 0 128 128" role="img" aria-labelledby="viteTitle">
  <title id="viteTitle">Vite</title>
  <defs>
    <linearGradient id="viteA" x1="6.2" x2="77.7" y1="32.7" y2="90.4" gradientUnits="userSpaceOnUse">
      <stop offset="0" stop-color="#41d1ff"/>
      <stop offset="1" stop-color="#bd34fe"/>
    </linearGradient>
    <linearGradient id="viteB" x1="42.7" x2="65" y1="10.2" y2="97.2" gradientUnits="userSpaceOnUse">
      <stop offset="0" stop-color="#ffea83"/>
      <stop offset=".08" stop-color="#ffdd35"/>
      <stop offset="1" stop-color="#ffa800"/>
    </linearGradient>
  </defs>
  <path fill="url(#viteA)" d="M123.2 19.2 67.8 118.4c-1.1 2-3.9 2-5 0L4.7 19.3c-1.2-2 .5-4.5 2.7-4.1l55.6 10.9a3 3 0 0 0 1.1 0l56.4-11c2.3-.4 3.9 2.1 2.7 4.1Z"/>
  <path fill="url(#viteB)" d="M92 6.8 51 14.8a1.5 1.5 0 0 0-1.2 1.3L47 58.8c-.1 1.4 1.2 2.5 2.6 2.2l11.4-2.6c1.1-.2 2.1.7 1.9 1.8l-3.4 16.7c-.3 1.4 1 2.6 2.4 2.2l7.1-2c1.1-.3 2.2.7 1.9 1.8L66.3 106c-.3 1.9 2.2 2.9 3.2 1.2l.7-1.2 33.4-66.7c.6-1.2-.4-2.5-1.7-2.2L90.2 40c-1.2.3-2.3-.8-1.9-2l7.6-29c.3-1.3-.8-2.5-2-2.2Z"/>
</svg>
